<?xml version="1.0" standalone="no"?>
<!DOCTYPE svg PUBLIC "-//W3C//DTD SVG 20010904//EN"
 "http://www.w3.org/TR/2001/REC-SVG-20010904/DTD/svg10.dtd">
<svg version="1.0" xmlns="http://www.w3.org/2000/svg"
 width="382.000000pt" height="269.000000pt" viewBox="0 0 382.000000 269.000000"
 preserveAspectRatio="xMidYMid meet">

<g transform="translate(0.000000,269.000000) scale(0.100000,-0.100000)"
fill="#000000" stroke="none">
<path d="M0 2640 c0 -37 4 -50 15 -50 8 0 19 -9 25 -20 6 -11 16 -20 23 -20 7
0 18 9 25 20 7 11 19 20 27 20 12 0 15 -13 15 -60 0 -61 -6 -70 -28 -48 -10
10 -15 10 -21 -1 -5 -8 -17 -11 -28 -7 -11 4 -28 4 -37 0 -14 -5 -16 -37 -16
-300 l0 -293 73 -3 c41 -2 71 -7 70 -13 -1 -5 -10 -12 -20 -14 -36 -7 -43 -22
-43 -93 0 -66 -1 -69 -23 -66 -20 3 -22 9 -25 75 -2 51 -7 73 -17 77 -13 5
-15 -20 -15 -167 l0 -172 52 3 c29 1 59 -2 67 -7 23 -15 2 -31 -40 -31 -32 0
-39 -4 -39 -19 0 -21 19 -31 57 -31 37 0 23 -24 -18 -30 -26 -4 -34 -10 -34
-25 0 -16 8 -21 38 -25 58 -8 44 -25 -23 -28 l-60 -3 0 -115 0 -115 26 20 c40
31 124 27 124 -6 0 -12 -7 -14 -29 -10 -42 9 -68 -2 -81 -33 -9 -23 -9 -34 2
-57 11 -24 20 -28 61 -31 31 -2 47 -8 47 -16 0 -21 -63 -28 -109 -12 l-41 14
0 -347 0 -346 25 53 c22 47 28 53 52 50 23 -2 33 -14 61 -72 18 -38 36 -82 39
-98 5 -24 2 -28 -16 -28 -13 0 -26 10 -33 25 -9 21 -18 25 -52 25 -57 0 -76
-34 -76 -136 l0 -74 1910 0 1910 0 0 1345 0 1345 -1910 0 -1910 0 0 -50z
m3781 10 c17 -10 19 -22 19 -115 0 -91 -2 -106 -18 -114 -10 -5 -69 -11 -131
-12 -146 -3 -146 -3 -143 128 2 53 8 103 14 110 13 16 229 18 259 3z m-2292
-74 c9 -11 9 -19 -1 -35 -10 -17 -10 -25 0 -41 17 -27 16 -30 -12 -30 -25 0
-36 16 -36 56 0 43 -36 24 -42 -21 -3 -29 -3 -30 -68 -30 l-64 0 -7 33 c-10
49 7 60 96 60 43 0 82 5 88 11 15 15 32 14 46 -3z m300 0 c9 -11 9 -19 -1 -35
-10 -17 -10 -25 0 -41 17 -28 15 -32 -15 -28 -25 3 -28 7 -31 47 -2 24 -1 50
2 57 7 18 30 18 45 0z m-840 -13 c7 -14 12 -15 24 -5 13 11 122 11 131 1 2 -2
6 -21 9 -42 5 -29 2 -39 -10 -44 -8 -3 -19 0 -23 7 -7 11 -11 11 -24 1 -21
-18 -36 -5 -37 32 -1 33 -3 30 -13 -15 -9 -38 -36 -37 -36 1 0 17 -4 33 -10
36 -6 4 -10 -8 -10 -30 0 -29 -3 -36 -17 -33 -20 3 -29 45 -19 84 7 28 21 31
35 7z m-594 -18 c0 -11 4 -26 8 -33 13 -19 -11 -42 -44 -42 -34 0 -49 19 -20
27 41 11 17 31 -29 24 -8 -1 -25 -2 -37 -2 -15 1 -23 -5 -23 -15 0 -12 6 -15
26 -10 19 5 25 3 22 -6 -3 -8 -21 -13 -44 -13 -37 0 -39 2 -42 33 -5 52 8 59
100 58 76 -1 83 -3 83 -21z m101 8 c3 -10 10 -26 15 -36 14 -25 -6 -47 -42
-47 -20 0 -29 5 -29 16 0 10 6 14 15 10 9 -3 15 0 15 9 0 8 -7 15 -15 15 -21
0 -31 30 -14 41 23 14 49 10 55 -8z m132 5 c15 -15 16 -75 1 -84 -18 -10 -69
-7 -84 6 -18 15 -9 37 18 46 l22 7 -23 8 c-13 5 -20 13 -17 19 9 14 68 13 83
-2z m236 -10 c13 -21 4 -30 -29 -30 -15 0 -25 -6 -25 -15 0 -9 8 -13 20 -11
10 2 18 -1 17 -7 -1 -5 -20 -9 -43 -9 -32 2 -42 -2 -50 -20 -11 -25 -65 -34
-82 -14 -21 26 -26 93 -8 111 24 24 184 20 200 -5z m401 12 c22 -36 8 -90 -24
-90 -10 0 -25 -10 -33 -22 -23 -34 -38 -13 -38 51 0 32 3 61 7 64 10 11 81 8
88 -3z m496 -11 c14 -28 8 -74 -11 -74 -10 0 -16 12 -18 33 -4 42 -32 44 -32
3 0 -37 -6 -41 -75 -44 -39 -1 -58 2 -64 12 -13 21 -3 39 27 50 l27 9 -27 1
c-29 1 -38 16 -15 24 6 2 49 4 95 5 72 1 83 -2 93 -19z m177 -282 c56 -29 123
-69 148 -91 94 -81 196 -272 260 -491 35 -118 38 -139 36 -230 -2 -55 -7 -104
-12 -109 -12 -12 -28 53 -36 154 -4 47 -15 110 -24 140 -10 30 -21 70 -25 88
-7 32 -39 63 -97 91 -14 8 -24 19 -22 26 4 8 -13 19 -43 30 -26 10 -77 31
-113 47 -96 44 -184 58 -325 52 -86 -4 -116 -3 -105 5 8 6 33 11 55 11 67 0
87 9 82 36 -3 18 0 24 14 24 11 0 19 -4 19 -8 0 -11 88 -14 94 -3 3 5 -10 12
-29 15 -36 7 -46 29 -20 43 21 12 5 67 -21 72 -10 1 -27 10 -36 18 -16 15 -16
17 8 35 23 19 24 22 9 44 -20 31 -19 39 8 52 32 15 60 7 175 -51z m697 -89
c51 -23 25 -53 -41 -49 -45 3 -64 -14 -64 -56 0 -38 24 -56 73 -55 52 2 63 -6
43 -34 -19 -25 -112 -26 -149 -1 -30 19 -43 68 -33 122 12 64 105 103 171 73z
m545 -3 c16 -8 36 -25 44 -37 23 -33 20 -100 -6 -133 -17 -22 -19 -31 -10 -46
19 -30 14 -39 -18 -39 -18 0 -37 8 -47 20 -10 11 -33 23 -53 26 -73 12 -100
41 -100 109 0 48 8 63 49 90 41 29 97 33 141 10z m158 -51 c4 -94 8 -104 43
-104 34 0 37 5 43 85 3 33 5 63 5 68 1 13 61 8 62 -5 4 -62 -5 -147 -17 -165
-31 -48 -148 -52 -184 -5 -27 34 -29 166 -3 180 36 21 48 8 51 -54z m352 45
c13 -21 -8 -39 -46 -39 -49 0 -46 -28 4 -32 29 -2 37 -7 37 -23 0 -16 -8 -21
-38 -23 -29 -3 -37 -7 -35 -20 2 -11 14 -16 38 -16 28 -1 36 -5 38 -23 3 -20
-2 -21 -64 -25 -44 -2 -72 1 -80 9 -17 18 -12 192 6 203 22 14 131 5 140 -11z
m-930 -74 l0 -85 38 5 c43 7 68 -6 59 -29 -6 -14 -20 -16 -84 -14 l-78 3 -3
89 c-2 49 -1 95 2 103 3 7 19 13 36 13 l30 0 0 -85z m192 75 c2 -5 1 -51 -2
-101 -5 -84 -7 -93 -27 -100 -17 -6 -25 -4 -33 11 -11 20 -14 158 -4 184 7 17
60 22 66 6z m-1192 -30 c0 -5 -11 -10 -24 -10 -14 0 -28 5 -31 10 -4 6 7 10
24 10 17 0 31 -4 31 -10z m-1403 -277 c3 -7 -10 -13 -34 -15 -30 -2 -38 -7
-38 -23 0 -15 8 -21 33 -23 46 -5 43 -32 -3 -32 -30 0 -35 -3 -35 -24 0 -21 5
-25 37 -28 20 -2 38 -9 41 -16 3 -10 -12 -12 -65 -10 l-68 3 -3 79 c-2 44 -1
85 2 93 7 18 127 14 133 -4z m1063 -27 c0 -18 -27 -39 -40 -31 -7 4 -7 12 0
26 12 22 40 26 40 5z m415 -26 c0 -22 -3 -40 -7 -40 -5 0 -8 18 -8 40 0 22 3
40 8 40 4 0 7 -18 7 -40z m255 -45 c43 -22 37 -35 -18 -35 -27 0 -72 -7 -101
-16 -37 -11 -64 -13 -94 -7 -41 8 -54 27 -19 29 9 0 35 10 57 22 48 26 133 29
175 7z m-662 -51 c-3 -16 -7 -13 -21 13 -23 43 -21 52 4 26 12 -11 19 -29 17
-39z m263 35 c27 -12 48 -27 46 -33 -2 -7 -36 -11 -88 -12 -47 0 -104 -4 -127
-7 -22 -4 -43 -3 -46 2 -12 19 89 67 147 70 10 1 41 -9 68 -20z m441 -186 c26
-24 22 -40 -14 -52 -50 -18 -148 9 -148 40 0 29 131 40 162 12z m-454 -29 c5
-34 -24 -49 -98 -49 -68 0 -100 13 -100 41 0 10 13 14 44 14 25 0 48 5 51 11
4 5 28 9 53 7 39 -2 48 -7 50 -24z m967 12 c22 -8 52 -17 67 -20 26 -6 26 -7
14 -34 -48 -97 -66 -142 -66 -162 0 -13 -3 -20 -7 -17 -4 4 -9 51 -12 105 l-6
97 -37 3 c-30 3 -38 0 -38 -13 0 -17 -74 -120 -104 -144 -14 -12 -16 -11 -16
6 0 10 4 23 8 29 5 5 17 30 26 56 10 26 30 61 46 78 32 34 62 38 125 16z
m-1202 -103 c8 -46 11 -83 7 -83 -13 0 -30 61 -37 125 -8 89 13 59 30 -42z
m-1170 61 c9 -3 33 -32 53 -65 21 -32 42 -59 46 -59 4 0 8 27 8 59 0 42 4 60
14 64 27 11 37 -19 34 -105 l-3 -83 -32 -3 c-28 -3 -36 3 -74 57 -24 34 -47
61 -51 61 -4 0 -8 -27 -8 -60 0 -53 -2 -60 -20 -60 -19 0 -20 7 -20 93 0 109
6 120 53 101z m328 -5 c29 -15 14 -29 -32 -29 -55 0 -54 -30 2 -55 51 -24 66
-48 45 -79 -17 -27 -67 -39 -111 -28 -48 13 -38 37 15 37 25 0 47 4 50 9 3 5
-15 22 -40 36 -39 23 -45 31 -45 60 0 27 6 37 25 47 31 16 65 16 91 2z m117
-92 l3 -97 -26 0 c-25 0 -25 0 -25 94 0 92 6 109 35 102 6 -2 11 -46 13 -99z
m135 79 c12 -13 35 -43 52 -67 l30 -44 5 55 c6 63 15 81 35 73 12 -4 15 -26
15 -98 0 -86 -2 -93 -21 -98 -33 -9 -47 1 -90 65 -22 32 -44 56 -50 53 -5 -4
-9 -31 -9 -61 0 -47 -2 -54 -20 -54 -19 0 -20 7 -20 93 0 52 3 97 7 100 14 14
45 6 66 -17z m304 16 c6 -4 21 -30 33 -57 11 -28 30 -67 41 -88 l21 -38 -23
-27 c-13 -15 -25 -28 -25 -30 -1 -2 -14 0 -29 4 l-28 7 26 11 c24 10 26 13 14
36 -17 35 -90 42 -107 11 -12 -23 -50 -29 -50 -8 0 16 59 158 72 175 12 13 37
16 55 4z m813 -17 c6 -8 9 -22 6 -33 -6 -16 -18 -18 -114 -19 -62 0 -117 -5
-129 -11 -33 -18 -40 -15 -35 19 5 35 22 45 51 29 16 -8 28 -7 51 5 22 11 44
14 74 10 28 -5 46 -3 50 4 10 15 31 14 46 -4z m-77 -125 c-4 -5 -29 -10 -55
-12 -55 -4 -62 9 -22 41 l26 21 30 -21 c16 -12 26 -25 21 -29z m177 -6 c0 -3
-5 -15 -11 -26 -15 -27 6 -51 24 -28 7 8 23 21 36 28 22 13 21 11 -9 -47 -34
-64 -106 -132 -164 -156 -58 -24 -59 -23 -52 63 4 42 3 83 -2 90 -6 8 -23 12
-43 10 -29 -2 -34 -7 -37 -31 -2 -15 6 -52 16 -82 12 -33 16 -57 10 -61 -16
-10 -55 5 -96 38 -22 18 -49 40 -60 47 -12 8 -24 21 -27 29 -4 12 -2 12 8 4 8
-7 17 -9 20 -5 4 3 16 -2 27 -12 18 -17 20 -17 20 -1 0 21 -27 66 -53 87 -28
23 -16 49 23 49 16 0 30 -4 30 -10 0 -15 187 -11 245 5 53 14 95 19 95 9z
m359 -50 c-16 -20 -21 -12 -13 21 6 23 8 25 16 11 6 -11 6 -22 -3 -32z m375
21 c-4 -8 -8 -15 -10 -15 -2 0 -4 7 -4 15 0 8 4 15 10 15 5 0 7 -7 4 -15z
m-1512 -115 c49 -15 73 -28 88 -50 17 -25 26 -28 50 -23 24 4 30 2 30 -12 0
-9 -9 -19 -20 -22 -10 -3 -22 -14 -25 -24 -4 -11 -20 -26 -36 -34 -17 -9 -29
-24 -29 -35 0 -11 -11 -27 -24 -35 -13 -9 -27 -26 -30 -39 -5 -22 -62 -56 -94
-56 -10 0 -23 5 -29 11 -9 9 -19 9 -40 1 -26 -10 -63 -16 -90 -13 -6 1 -9 10
-6 20 4 15 18 22 62 28 31 4 66 6 79 5 28 -4 92 16 92 28 0 5 -18 16 -40 26
-48 21 -43 36 10 28 29 -5 47 -2 65 10 33 22 32 35 -5 47 -39 14 -38 22 6 43
34 16 35 18 20 35 -8 9 -39 25 -68 34 -29 9 -59 21 -67 26 -18 12 -4 33 17 27
10 -3 47 -15 84 -26z m218 -4 c0 -16 -18 -31 -27 -22 -8 8 5 36 17 36 5 0 10
-6 10 -14z m731 -102 c-13 -25 -25 -43 -28 -40 -9 8 8 66 24 82 26 26 28 6 4
-42z m-1842 5 c62 -22 78 -110 28 -157 -32 -30 -94 -37 -137 -15 -44 23 -63
61 -54 109 11 62 85 90 163 63z m200 -57 c13 -34 29 -61 34 -59 6 2 20 30 33
63 21 56 24 59 55 59 l34 0 3 -93 c3 -92 2 -93 -20 -90 -20 3 -24 10 -28 58
l-6 55 -26 -57 c-22 -47 -32 -58 -50 -58 -20 0 -27 9 -42 50 -10 28 -22 50
-27 50 -5 0 -9 -22 -9 -50 0 -43 -3 -50 -20 -50 -11 0 -20 6 -21 13 -2 40 3
163 8 170 3 4 17 7 31 5 22 -3 30 -13 51 -66z m386 53 c55 -23 73 -99 35 -148
-25 -31 -82 -43 -138 -28 -49 14 -62 29 -69 80 -12 89 74 137 172 96z m580
-235 c10 -11 23 -20 29 -20 7 0 32 -23 56 -51 25 -28 58 -65 73 -82 40 -45 16
-45 -48 0 -30 21 -66 44 -80 51 -23 12 -54 52 -40 52 4 0 -3 13 -14 29 -12 16
-21 32 -21 35 0 13 28 5 45 -14z m-157 -6 c12 -8 22 -22 22 -29 0 -8 13 -21
29 -30 16 -8 47 -36 68 -62 21 -26 48 -59 61 -73 l22 -25 540 0 c489 0 541 -2
556 -17 19 -19 20 -37 5 -143 -20 -139 -11 -128 -94 -124 l-72 4 -10 -72 c-11
-83 -22 -85 -54 -10 -12 27 -27 54 -34 60 -7 7 -35 32 -62 57 -28 25 -49 48
-47 53 1 4 -5 7 -13 7 -8 0 -15 4 -15 9 0 6 -19 13 -42 16 -24 4 -56 9 -73 11
-16 3 -220 11 -452 17 l-423 12 -27 28 c-26 26 -27 29 -10 41 26 20 22 72 -8
101 -18 19 -35 25 -68 25 l-43 0 -17 53 c-21 68 -21 74 3 87 28 15 70 2 82
-26 15 -31 36 -31 44 1 3 14 14 30 23 35 25 15 84 12 109 -6z m467 -40 c9 -20
14 -38 11 -41 -7 -8 -56 47 -56 63 0 27 28 13 45 -22z m-767 -236 c-4 -52 -19
-55 -34 -8 -14 41 -10 50 17 50 17 0 20 -6 17 -42z m112 -49 c0 -6 -4 -7 -10
-4 -5 3 -10 11 -10 16 0 6 5 7 10 4 6 -3 10 -11 10 -16z m-841 -188 c22 -14 2
-34 -28 -28 -38 8 -59 -6 -42 -27 8 -9 19 -16 26 -16 20 0 65 -40 65 -59 0 -9
-9 -27 -21 -40 -17 -18 -29 -21 -72 -19 -44 3 -52 6 -55 24 -3 18 2 20 40 20
24 -1 45 3 48 8 3 5 -15 21 -40 36 -54 31 -65 68 -28 94 24 17 84 21 107 7z
m259 -56 l47 -66 5 63 c4 55 8 63 25 63 19 0 20 -7 20 -95 l0 -95 -33 -3 c-24
-2 -34 1 -39 15 -9 25 -76 113 -85 113 -4 0 -8 -30 -8 -66 0 -57 -2 -65 -17
-62 -15 3 -18 17 -21 87 -3 101 0 111 33 111 20 0 36 -14 73 -65z m343 36 c23
-23 29 -38 29 -71 0 -33 -6 -48 -29 -71 -25 -25 -37 -29 -81 -29 -44 0 -56 4
-81 29 -22 22 -29 39 -29 68 0 69 38 101 118 102 35 1 49 -5 73 -28z m236 12
c3 -7 -10 -16 -29 -21 l-33 -8 -3 -77 c-2 -67 -5 -77 -21 -77 -25 0 -31 19
-31 96 0 61 -1 64 -24 64 -27 0 -41 14 -31 30 9 15 167 8 172 -7z m181 -51
c18 -37 35 -82 38 -100 6 -28 4 -32 -15 -32 -14 0 -25 9 -31 25 -8 21 -16 25
-49 25 -31 0 -43 -6 -59 -27 -13 -18 -24 -24 -36 -20 -21 8 -17 22 30 125 30
65 35 72 62 72 26 0 32 -7 60 -68z m210 46 c3 -15 -4 -18 -37 -18 -50 0 -55
-22 -10 -40 42 -18 59 -37 59 -65 0 -36 -38 -57 -97 -53 -40 3 -48 6 -51 25
-3 19 1 21 44 20 54 -2 67 13 27 33 -39 19 -73 51 -73 67 0 7 9 22 21 34 26
26 112 24 117 -3z m314 -17 c25 -28 29 -39 24 -69 -3 -21 -17 -47 -33 -61 -24
-22 -37 -26 -93 -26 l-65 0 -3 84 c-2 46 0 91 3 99 4 11 20 13 71 10 60 -4 69
-7 96 -37z m269 10 c12 -15 19 -39 19 -68 0 -36 -6 -50 -29 -74 -25 -25 -37
-29 -83 -29 -29 0 -58 4 -64 8 -49 34 -60 127 -18 169 23 23 31 25 91 21 54
-3 69 -8 84 -27z m477 -24 c17 -20 3 -86 -20 -98 -29 -16 -48 6 -48 56 0 23 3
45 7 48 11 12 50 8 61 -6z m-34 -166 c9 -14 -11 -61 -25 -61 -17 0 -49 30 -49
46 0 19 64 32 74 15z"/>
<path d="M3613 2634 c-16 -7 25 -54 46 -54 9 0 24 7 34 15 20 14 47 10 47 -8
0 -6 -9 -21 -21 -33 l-21 -22 22 -22 c40 -40 4 -68 -41 -31 -23 18 -24 18 -49
-1 -27 -20 -60 -16 -60 8 0 7 10 20 23 29 l22 16 -25 19 c-38 30 -47 25 -52
-32 -9 -85 -7 -86 114 -88 144 -2 128 -14 128 93 0 59 -4 97 -12 105 -12 12
-130 16 -155 6z"/>
<path d="M1295 2530 c-7 -23 2 -43 16 -35 12 8 12 42 0 50 -5 3 -12 -4 -16
-15z"/>
<path d="M654 2536 c-6 -17 2 -36 17 -36 12 0 12 37 -1 45 -6 3 -13 -1 -16 -9z"/>
<path d="M1170 2520 c0 -11 7 -20 15 -20 8 0 15 9 15 20 0 11 -7 20 -15 20 -8
0 -15 -9 -15 -20z"/>
<path d="M3030 2105 c-10 -18 -11 -33 -4 -53 8 -22 16 -28 47 -30 32 -3 38 0
47 22 6 17 6 36 -1 56 -9 25 -16 30 -43 30 -25 0 -36 -6 -46 -25z"/>
<path d="M1081 1432 c-16 -30 -14 -42 9 -42 21 0 27 24 11 49 -7 11 -11 10
-20 -7z"/>
<path d="M272 1074 c-16 -11 -22 -25 -22 -53 0 -45 14 -61 55 -61 41 0 55 16
55 61 0 54 -47 82 -88 53z"/>
<path d="M858 1083 c-9 -2 -22 -18 -29 -35 -10 -26 -10 -35 2 -57 18 -32 68
-40 93 -16 24 25 21 81 -6 99 -23 16 -30 17 -60 9z"/>
<path d="M840 323 c-39 -14 -54 -78 -24 -107 8 -9 28 -16 44 -16 36 0 60 23
60 59 0 46 -40 78 -80 64z"/>
<path d="M1287 293 c-15 -15 -7 -43 13 -43 21 0 24 8 14 34 -7 17 -16 20 -27
9z"/>
<path d="M1767 313 c-4 -3 -7 -28 -7 -55 0 -56 17 -70 59 -47 49 28 36 109
-18 109 -15 0 -31 -3 -34 -7z"/>
<path d="M2010 301 c-26 -50 -1 -101 50 -101 52 0 79 69 42 103 -26 24 -79 22
-92 -2z"/>
<path d="M61 284 c-13 -29 -1 -47 26 -37 17 6 17 24 0 47 -12 16 -14 16 -26
-10z"/>
</g>
</svg>
